PathFileType	4	(X/Y/Z)	c:/Users/goper/Files/vsCode/490R/osim_files/A04/A04_Static02.trc
DataRate	CameraRate	NumFrames	NumMarkers	Units                	OrigDataRate	OrigDataStartFrame	OrigNumFrames
120.00	120.00	4	36	mm	120.0	642	855
                Frame#	Time	LPSIS			LASIS			LTH1			LTH2			LTH3			LTH4			LLFE			LMFE			LSH1			LSH2			LSH3			LSH4			LLMAL			LMMAL			LCAL			LMTP5			LTOE			LMTP1			RPSIS			RASIS			RTH1			RTH2			RTH3			RTH4			RLFE			RMFE			RSH1			RSH2			RSH3			RSH4			RLMAL			RMMAL			RCAL			RMTP1			RTOE			RMTP5		
		X1	Y1	Z1	X2	Y2	Z2	X3	Y3	Z3	X4	Y4	Z4	X5	Y5	Z5	X6	Y6	Z6	X7	Y7	Z7	X8	Y8	Z8	X9	Y9	Z9	X10	Y10	Z10	X11	Y11	Z11	X12	Y12	Z12	X13	Y13	Z13	X14	Y14	Z14	X15	Y15	Z15	X16	Y16	Z16	X17	Y17	Z17	X18	Y18	Z18	X19	Y19	Z19	X20	Y20	Z20	X21	Y21	Z21	X22	Y22	Z22	X23	Y23	Z23	X24	Y24	Z24	X25	Y25	Z25	X26	Y26	Z26	X27	Y27	Z27	X28	Y28	Z28	X29	Y29	Z29	X30	Y30	Z30	X31	Y31	Z31	X32	Y32	Z32	X33	Y33	Z33	X34	Y34	Z34	X35	Y35	Z35	X36	Y36	Z36

642	5.34167	-271.03873	1054.66187	393.60269	-54.30994	1019.82074	292.19046	-173.76849	712.86633	270.42465	-174.44539	669.04279	268.74536	-112.62346	708.39014	268.24347	-120.73094	664.12262	267.29095	-167.89966	538.93085	273.89371	-137.11517	527.77521	410.09726	-215.04930	442.31818	270.87769	-214.19614	399.50089	269.32983	-152.66527	436.58554	274.64633	-160.71196	393.85095	274.25269	-273.73730	115.76438	294.74631	-242.23863	115.43192	374.74252	-333.78104	75.59322	355.34299	-141.71840	60.16188	242.01929	-85.54368	72.61148	296.51907	-98.93384	56.63247	343.18869	-264.84869	1045.75061	498.83609	-34.42038	1036.84509	578.45966	-157.90228	732.09381	621.45410	-152.10875	690.14172	619.58484	-95.96273	734.53070	628.44281	-98.70271	687.27789	623.09363	-108.54668	550.56635	599.99109	-98.63634	543.88641	482.34216	-198.28363	346.29959	595.18933	-200.20689	298.96808	588.52258	-137.67453	337.66217	601.58136	-148.35240	291.39569	598.27997	-201.54541	104.32445	597.85529	-170.65358	109.84196	464.73654	-269.77258	60.46967	517.48224	-44.60767	53.78727	489.51517	-22.31532	75.08355	537.05786	-58.77873	49.06672	608.47308
643	5.35000	-270.94318	1054.38086	393.18616	-54.13050	1019.71350	291.91385	-173.71928	712.74768	270.27350	-174.41777	668.91742	268.62552	-112.55788	708.23175	268.11163	-120.75563	663.95074	267.19934	-168.01575	538.84021	273.83618	-137.21965	527.69305	410.07883	-215.12593	442.23886	270.87537	-214.26736	399.40701	269.30679	-152.75743	436.51855	274.62155	-160.78587	393.78125	274.21976	-273.81650	115.66560	294.74295	-242.35898	115.36596	374.73157	-333.85715	75.48886	355.32782	-141.79013	60.17585	242.01720	-85.60560	72.66783	296.50885	-99.00113	56.69034	343.18048	-264.85089	1045.63391	498.38687	-34.10029	1036.86780	578.23688	-158.02507	732.19733	621.30304	-152.22861	690.21252	619.42902	-96.06775	734.60358	628.28937	-98.78586	687.36859	622.94690	-108.68214	550.65338	599.84753	-98.64688	543.96039	482.19641	-198.37047	346.34369	595.07123	-200.33838	299.02576	588.41516	-137.74843	337.71579	601.49054	-148.45578	291.41891	598.19183	-201.59517	104.37150	597.81714	-170.68050	109.82568	464.70816	-269.80298	60.50071	517.44885	-44.59462	53.83201	489.49893	-22.34874	75.12404	537.05774	-58.79834	49.12993	608.44812
644	5.35833	-270.86356	1054.13782	392.75162	-53.91054	1019.51575	291.67993	-173.58015	712.60797	270.17850	-174.34364	668.77496	268.49823	-111.96617	708.35297	267.98138	-120.70522	663.75983	267.10782	-168.07944	538.74652	273.80914	-137.26874	527.61340	410.05554	-215.18446	442.17062	270.85635	-214.29161	399.32388	269.26013	-152.81201	436.41537	274.60159	-160.87524	393.66599	274.20865	-273.75769	115.60615	294.85770	-242.44115	115.30715	374.71613	-333.89615	75.38077	355.32861	-141.81750	60.16129	242.02791	-85.66183	72.67955	296.52069	-99.04565	56.69546	343.20477	-264.85239	1045.55664	497.92725	-34.09023	1036.43359	578.16791	-158.02879	732.26404	621.16284	-152.21368	690.24237	619.29486	-96.08150	734.64606	628.15234	-98.79902	687.42047	622.79413	-108.73597	550.71185	599.73395	-98.68022	543.97699	482.07312	-198.38057	346.36276	594.96948	-200.31654	299.03946	588.32269	-137.76953	337.74634	601.41455	-148.44662	291.45306	598.10663	-201.56967	104.39436	597.79443	-170.67218	109.81792	464.69601	-269.77261	60.45718	517.43878	-44.59804	53.82642	489.51230	-22.33496	75.13451	537.06714	-58.79869	49.13151	608.45685
645	5.36667	-270.72830	1053.86682	392.23349	-53.68281	1019.22906	291.46890	-173.51540	712.44177	270.06293	-174.28107	668.61719	268.39865	-112.47162	707.79211	267.88248	-120.66460	663.55090	267.02426	-168.13101	538.66437	273.76825	-137.29726	527.54840	410.02750	-215.20932	442.09482	270.81668	-214.34128	399.23547	269.23761	-152.87662	436.29337	274.58578	-160.92542	393.56610	274.19580	-273.95883	115.46505	294.68796	-242.50455	115.22662	374.69431	-333.34650	74.84299	354.93671	-141.86511	60.10608	242.03429	-85.68089	72.68371	296.53024	-99.06068	56.66617	343.20932	-264.80911	1045.49695	497.50635	-33.61185	1036.71777	577.81732	-158.00574	732.29401	621.02814	-152.18240	690.25067	619.15057	-96.12536	734.67535	627.98944	-98.81144	687.45795	622.62683	-108.75794	550.76642	599.62817	-98.65244	544.01544	481.94202	-198.35590	346.33228	594.87390	-200.25504	299.01575	588.23541	-137.75206	337.76572	601.33398	-148.40779	291.47391	598.02026	-201.51385	104.36787	597.78638	-170.65048	109.79297	464.66977	-269.71103	60.44450	517.39105	-44.61117	53.77792	489.53815	-22.29638	75.11238	537.06183	-58.77413	49.11492	608.47101
